<svg xmlns="http://www.w3.org/2000/svg" width="500" viewBox="0 0 375 375" height="500" version="1.0"><defs><clipPath id="a"><path d="M42.148 0H333v375H42.148Zm0 0"/></clipPath></defs><path fill="#fff" d="M187.047-.422a31.156 31.156 0 0 0-6.035.68c-.992.215-1.969.472-2.938.781a30.911 30.911 0 0 0-8.16 4.008 31.08 31.08 0 0 0-4.64 3.918 31.544 31.544 0 0 0-3.785 4.746 30.849 30.849 0 0 0-1.524 2.629 30.364 30.364 0 0 0-1.262 2.765 31.244 31.244 0 0 0-1.683 5.836 31.146 31.146 0 0 0-.512 6.051v123.965H32.543a30.698 30.698 0 0 0-6.11.523 31.317 31.317 0 0 0-2.988.707 30.992 30.992 0 0 0-13.102 7.691 30.781 30.781 0 0 0-2.077 2.263 30.459 30.459 0 0 0-1.844 2.453 31.892 31.892 0 0 0-1.59 2.625 31.526 31.526 0 0 0-2.363 5.656 30.569 30.569 0 0 0-1.207 6.012 30.856 30.856 0 0 0 0 6.129 30.569 30.569 0 0 0 1.207 6.011 31.526 31.526 0 0 0 2.363 5.656c.488.899 1.02 1.774 1.59 2.622a30.521 30.521 0 0 0 3.922 4.715 30.441 30.441 0 0 0 4.77 3.852 30.42 30.42 0 0 0 2.644 1.554c.91.472 1.84.902 2.789 1.285a31.335 31.335 0 0 0 5.887 1.71c1.007.188 2.02.325 3.039.411a29.83 29.83 0 0 0 3.07.11h123.965V340.91a30.896 30.896 0 0 0 .11 3.067 30.53 30.53 0 0 0 .41 3.039c.187 1.007.425 2.004.71 2.988s.621 1.95 1.004 2.898c.38.953.809 1.883 1.281 2.79a31.18 31.18 0 0 0 5.406 7.418 31.484 31.484 0 0 0 2.258 2.074 30.847 30.847 0 0 0 5.082 3.434c.899.487 1.825.929 2.77 1.323.945.395 1.906.743 2.887 1.043.976.301 1.969.551 2.972.75a30.58 30.58 0 0 0 6.102.61 30.935 30.935 0 0 0 9.074-1.36c.98-.3 1.942-.648 2.887-1.043a29.994 29.994 0 0 0 2.77-1.324 30.847 30.847 0 0 0 5.082-3.433 31.484 31.484 0 0 0 2.257-2.075 31.18 31.18 0 0 0 5.406-7.418c.473-.906.903-1.836 1.282-2.789.383-.949.719-1.914 1.004-2.898.285-.984.523-1.98.71-2.988a30.53 30.53 0 0 0 .41-3.04c.087-1.019.126-2.042.11-3.066V216.941h123.965a29.83 29.83 0 0 0 3.07-.109 30.686 30.686 0 0 0 6.028-1.121 30.59 30.59 0 0 0 5.687-2.285 30.42 30.42 0 0 0 2.645-1.555 30.441 30.441 0 0 0 4.77-3.851 31.539 31.539 0 0 0 2.077-2.258c.653-.79 1.27-1.606 1.844-2.457a32.489 32.489 0 0 0 1.59-2.621 31.526 31.526 0 0 0 2.363-5.657 30.569 30.569 0 0 0 1.207-6.012 30.876 30.876 0 0 0 0-6.128 30.569 30.569 0 0 0-1.207-6.012 31.526 31.526 0 0 0-2.363-5.656 31.892 31.892 0 0 0-1.59-2.625 31.409 31.409 0 0 0-3.922-4.715 30.725 30.725 0 0 0-2.289-2.043 30.486 30.486 0 0 0-2.48-1.809 30.992 30.992 0 0 0-17.43-5.07H218.492V30.992a31.18 31.18 0 0 0-1.258-9.172 30.877 30.877 0 0 0-1.023-2.925 30.947 30.947 0 0 0-2.887-5.47 31.309 31.309 0 0 0-3.918-4.785 31.309 31.309 0 0 0-2.297-2.077A30.993 30.993 0 0 0 196.22.824a31.858 31.858 0 0 0-3.012-.723 31.083 31.083 0 0 0-6.16-.524Zm0 0"/><g clip-path="url(#a)"><path fill="#fff" d="M332.844 346.672c0-100.067-65.13-181.137-145.348-181.137-80.223 0-145.348 81.07-145.348 181.137 0 15.601 65.125 28.32 145.348 28.32 80.219 0 145.348-12.719 145.348-28.32ZM187.496.008C231.25.008 266.7 35.453 266.7 79.21s-35.449 79.203-79.203 79.203c-43.758 0-79.203-35.445-79.203-79.203S143.738.008 187.496.008Zm0 0" fill-rule="evenodd"/></g></svg>