<svg xmlns="http://www.w3.org/2000/svg" width="500" zoomAndPan="magnify" viewBox="0 0 375 375" height="500" preserveAspectRatio="xMidYMid meet" xmlns:v="https://vecta.io/nano"><path fill="#fff" d="M187.047-.422c-1.016.012-2.027.078-3.035.191l-3 .488-2.937.781-2.848 1.066-2.727 1.34-2.586 1.602c-.836.574-1.641 1.188-2.414 1.844l-2.227 2.074-2.008 2.281-1.777 2.465-1.523 2.629c-.469.902-.887 1.824-1.262 2.766l-.984 2.879-.699 2.957-.402 3.012-.109 3.039v123.965H32.543a32.21 32.21 0 0 0-3.07.109c-1.02.086-2.031.227-3.039.414l-2.988.707-2.898 1.004-2.789 1.285-2.645 1.551-2.48 1.809-2.289 2.043-2.078 2.262a30.46 30.46 0 0 0-1.844 2.453l-1.59 2.625-1.32 2.77a29.24 29.24 0 0 0-1.043 2.887l-.754 2.977a30.57 30.57 0 0 0-.453 3.035l-.152 3.063c0 1.027.051 2.047.152 3.066l.453 3.035.754 2.977c.297.977.645 1.941 1.043 2.887l1.32 2.77 1.59 2.621a30.52 30.52 0 0 0 1.844 2.457l2.078 2.258c.727.723 1.492 1.402 2.289 2.047l2.48 1.805a30.42 30.42 0 0 0 2.645 1.555l2.789 1.285a30.59 30.59 0 0 0 2.898 1l2.988.711 3.039.41a29.83 29.83 0 0 0 3.07.109h123.965V340.91c-.016 1.023.023 2.047.109 3.066a30.53 30.53 0 0 0 .41 3.039c.188 1.008.426 2.004.711 2.988a30.24 30.24 0 0 0 1.004 2.898c.379.953.809 1.883 1.281 2.789l1.555 2.648 1.809 2.48a30.63 30.63 0 0 0 2.043 2.289l2.258 2.074 2.457 1.844 2.625 1.59c.898.488 1.824.93 2.77 1.324l2.887 1.043a29.81 29.81 0 0 0 2.973.75 30.58 30.58 0 0 0 3.035.457l3.066.152c1.023 0 2.047-.051 3.066-.152l3.035-.457a29.81 29.81 0 0 0 2.973-.75l2.887-1.043c.945-.395 1.871-.836 2.77-1.324l2.625-1.59 2.457-1.844c.785-.652 1.539-1.348 2.258-2.074l2.043-2.289 1.809-2.48 1.555-2.648 1.281-2.789a30.24 30.24 0 0 0 1.004-2.898l.711-2.988a30.53 30.53 0 0 0 .41-3.039l.109-3.066V216.941h123.965a29.83 29.83 0 0 0 3.07-.109c1.02-.086 2.031-.223 3.039-.41s2.004-.426 2.988-.711l2.898-1 2.789-1.285a30.42 30.42 0 0 0 2.645-1.555 30.44 30.44 0 0 0 2.48-1.805l2.289-2.047 2.078-2.258 1.844-2.457 1.59-2.621 1.32-2.77c.398-.945.746-1.91 1.043-2.887s.551-1.973.754-2.977a30.57 30.57 0 0 0 .453-3.035l.152-3.066c0-1.023-.051-2.043-.152-3.062l-.453-3.035-.754-2.977a29.24 29.24 0 0 0-1.043-2.887c-.395-.945-.836-1.867-1.32-2.77l-1.59-2.625-1.844-2.453-2.078-2.262c-.727-.719-1.492-1.398-2.289-2.043s-1.621-1.246-2.48-1.809a30.38 30.38 0 0 0-2.645-1.551 30.99 30.99 0 0 0-2.789-1.285l-2.898-1.004-2.988-.707-3.039-.414-3.07-.109H218.492V30.992l-.113-3.094-.422-3.07c-.191-1.016-.43-2.02-.723-3.008l-1.023-2.926c-.387-.957-.824-1.891-1.305-2.805l-1.582-2.664-1.84-2.488-2.078-2.297a31.31 31.31 0 0 0-2.297-2.078l-2.492-1.836-2.664-1.578-2.809-1.305-2.926-1.02-3.012-.723-3.066-.414c-1.031-.09-2.062-.125-3.094-.109zm0 0"/></svg>